# xmcd CD database file
#
# Track frame offsets:
#	150
#	19997
#	39422
#	59231
#	89949
#
# Disc length: 4440 seconds
#
# Revision: 0
# Processed by: cddbd v1.5.1PL0 Copyright (c) Steve Scherf et al.
# Submitted via: CDex 1.51
#
DISCID=48115605
DTITLE=安室奈美恵 - GIRL TALK／the SPEED STAR
DYEAR=2004
DGENRE=JPop
TTITLE0=GIRL TALK
TTITLE1=the SPEED STAR
TTITLE2=GIRL TALK (Instrumental)
TTITLE3=the SPEED STAR (Instrumental)
TTITLE4=CCCD
EXTD=YEAR: 2004
EXTT0=
EXTT1=
EXTT2=
EXTT3=
EXTT4=
PLAYORDER=
